<svg width="1920" height="1080" viewBox="0 0 1920 1080" fill="none" xmlns="http://www.w3.org/2000/svg">
<g clip-path="url(#clip0_2049_1723)">
<rect width="1920" height="1080" fill="white"/>
<rect x="554" width="911" height="1107" fill="black"/>
<g clip-path="url(#clip1_2049_1723)">
<rect width="1085.89" height="610.813" transform="translate(1428 1086) rotate(-90)" fill="url(#paint0_radial_2049_1723)"/>
<g opacity="0.95" filter="url(#filter0_b_2049_1723)">
<path d="M1609.31 532.628L1856.36 -55.9348C1883.21 -119.895 1970.57 -127.984 2008.7 -70.04L2430.42 570.749C2446.6 595.334 2449.2 626.449 2437.33 653.379L2169.39 1261.03C2141.11 1325.17 2052.37 1330.97 2015.98 1271.06L1615.15 611.183C1600.73 587.446 1598.56 558.237 1609.31 532.628Z" stroke="url(#paint1_radial_2049_1723)" stroke-width="3.18463"/>
</g>
<g opacity="0.95" filter="url(#filter1_b_2049_1723)">
<path d="M1703.81 527.234L1914.43 25.4656C1941.27 -38.4945 2028.63 -46.5831 2066.77 11.3604L2428.7 561.307C2444.88 585.892 2447.48 617.008 2435.61 643.938L2207.1 1162.16C2178.82 1226.29 2090.08 1232.09 2053.7 1172.19L1709.65 605.789C1695.23 582.052 1693.06 552.843 1703.81 527.234Z" stroke="url(#paint2_radial_2049_1723)" stroke-width="3.18463"/>
</g>
<g opacity="0.95" filter="url(#filter2_b_2049_1723)">
<path d="M1786.78 527.16L1967.28 97.1213C1994.13 33.1612 2081.49 25.0725 2119.63 83.0159L2432.15 557.887C2448.33 582.472 2450.93 613.588 2439.06 640.518L2243.14 1084.83C2214.86 1148.96 2126.12 1154.76 2089.74 1094.86L1792.62 605.714C1778.2 581.977 1776.03 552.768 1786.78 527.16Z" stroke="url(#paint3_radial_2049_1723)" stroke-width="3.18463"/>
</g>
<g opacity="0.95" filter="url(#filter3_b_2049_1723)">
<path d="M1872.46 522.267L2019.93 170.935C2046.78 106.975 2134.14 98.886 2172.27 156.829L2430.58 549.324C2446.76 573.909 2449.36 605.025 2437.49 631.955L2277.33 995.167C2249.05 1059.3 2160.31 1065.1 2123.93 1005.2L1878.3 600.822C1863.88 577.084 1861.71 547.876 1872.46 522.267Z" stroke="url(#paint4_radial_2049_1723)" stroke-width="3.18463"/>
</g>
<g opacity="0.95" filter="url(#filter4_b_2049_1723)">
<path d="M1960.08 517.32L2077.48 237.62C2104.33 173.66 2191.69 165.572 2229.82 223.515L2438.79 541.036C2454.97 565.622 2457.57 596.737 2445.7 623.667L2318.09 913.069C2289.81 977.199 2201.07 983.001 2164.68 923.098L1965.92 595.874C1951.5 572.137 1949.33 542.929 1960.08 517.32Z" stroke="url(#paint5_radial_2049_1723)" stroke-width="3.18463"/>
</g>
</g>
<g clip-path="url(#clip2_2049_1723)">
<rect width="1085.89" height="610.813" transform="matrix(4.37114e-08 -1 -1 -4.37114e-08 553.812 1085.89)" fill="url(#paint6_radial_2049_1723)"/>
<g opacity="0.95" filter="url(#filter5_b_2049_1723)">
<path d="M372.503 532.517L125.454 -56.0461C98.6066 -120.006 11.2458 -128.095 -26.8885 -70.1514L-448.609 570.637C-464.79 595.222 -467.39 626.338 -455.515 653.268L-187.574 1260.92C-159.296 1325.05 -70.5532 1330.86 -34.1665 1270.95L366.661 611.072C381.08 587.334 383.252 558.126 372.503 532.517Z" stroke="url(#paint7_radial_2049_1723)" stroke-width="3.18463"/>
</g>
<g opacity="0.95" filter="url(#filter6_b_2049_1723)">
<path d="M278.004 527.123L67.3867 25.3543C40.5395 -38.6058 -46.8213 -46.6945 -84.9555 11.2491L-446.891 561.196C-463.071 585.781 -465.672 616.896 -453.797 643.826L-225.29 1162.05C-197.012 1226.18 -108.27 1231.98 -71.883 1172.08L272.162 605.677C286.581 581.94 288.753 552.732 278.004 527.123Z" stroke="url(#paint8_radial_2049_1723)" stroke-width="3.18463"/>
</g>
<g opacity="0.95" filter="url(#filter7_b_2049_1723)">
<path d="M195.036 527.048L14.5283 97.01C-12.3189 33.0499 -99.6797 24.9611 -137.814 82.9046L-450.34 557.776C-466.52 582.361 -469.121 613.477 -457.246 640.407L-261.33 1084.72C-233.052 1148.85 -144.309 1154.65 -107.923 1094.75L189.195 605.603C203.614 581.865 205.786 552.657 195.036 527.048Z" stroke="url(#paint9_radial_2049_1723)" stroke-width="3.18463"/>
</g>
<g opacity="0.95" filter="url(#filter8_b_2049_1723)">
<path d="M109.355 522.156L-38.1161 170.824C-64.9633 106.864 -152.324 98.7747 -190.458 156.718L-448.77 549.213C-464.95 573.798 -467.551 604.914 -455.676 631.844L-295.52 995.056C-267.242 1059.19 -178.5 1064.99 -142.113 1005.08L103.514 600.71C117.932 576.973 120.104 547.765 109.355 522.156Z" stroke="url(#paint10_radial_2049_1723)" stroke-width="3.18463"/>
</g>
<g opacity="0.95" filter="url(#filter9_b_2049_1723)">
<path d="M21.7353 517.209L-95.6683 237.509C-122.516 173.549 -209.876 165.46 -248.011 223.404L-456.98 540.925C-473.161 565.51 -475.761 596.626 -463.886 623.556L-336.277 912.958C-307.999 977.088 -219.256 982.89 -182.87 922.987L15.894 595.763C30.3126 572.026 32.4845 542.817 21.7353 517.209Z" stroke="url(#paint11_radial_2049_1723)" stroke-width="3.18463"/>
</g>
</g>
<g filter="url(#filter10_f_2049_1723)">
<rect x="1404" y="-15" width="43" height="1121" fill="black"/>
</g>
<g filter="url(#filter11_f_2049_1723)">
<rect x="536" y="-16" width="43" height="1120" fill="black"/>
</g>
</g>
<defs>
<filter id="filter0_b_2049_1723" x="1559.58" y="-152.053" width="928.09" height="1507.78" filterUnits="userSpaceOnUse" color-interpolation-filters="sRGB">
<feFlood flood-opacity="0" result="BackgroundImageFix"/>
<feGaussianBlur in="BackgroundImageFix" stdDeviation="20.6903"/>
<feComposite in2="SourceAlpha" operator="in" result="effect1_backgroundBlur_2049_1723"/>
<feBlend mode="normal" in="SourceGraphic" in2="effect1_backgroundBlur_2049_1723" result="shape"/>
</filter>
<filter id="filter1_b_2049_1723" x="1654.08" y="-70.6522" width="831.871" height="1327.5" filterUnits="userSpaceOnUse" color-interpolation-filters="sRGB">
<feFlood flood-opacity="0" result="BackgroundImageFix"/>
<feGaussianBlur in="BackgroundImageFix" stdDeviation="20.6903"/>
<feComposite in2="SourceAlpha" operator="in" result="effect1_backgroundBlur_2049_1723"/>
<feBlend mode="normal" in="SourceGraphic" in2="effect1_backgroundBlur_2049_1723" result="shape"/>
</filter>
<filter id="filter2_b_2049_1723" x="1737.05" y="1.00407" width="752.355" height="1178.51" filterUnits="userSpaceOnUse" color-interpolation-filters="sRGB">
<feFlood flood-opacity="0" result="BackgroundImageFix"/>
<feGaussianBlur in="BackgroundImageFix" stdDeviation="20.6903"/>
<feComposite in2="SourceAlpha" operator="in" result="effect1_backgroundBlur_2049_1723"/>
<feBlend mode="normal" in="SourceGraphic" in2="effect1_backgroundBlur_2049_1723" result="shape"/>
</filter>
<filter id="filter3_b_2049_1723" x="1822.73" y="74.8175" width="665.101" height="1015.04" filterUnits="userSpaceOnUse" color-interpolation-filters="sRGB">
<feFlood flood-opacity="0" result="BackgroundImageFix"/>
<feGaussianBlur in="BackgroundImageFix" stdDeviation="20.6903"/>
<feComposite in2="SourceAlpha" operator="in" result="effect1_backgroundBlur_2049_1723"/>
<feBlend mode="normal" in="SourceGraphic" in2="effect1_backgroundBlur_2049_1723" result="shape"/>
</filter>
<filter id="filter4_b_2049_1723" x="1910.35" y="141.503" width="585.691" height="866.256" filterUnits="userSpaceOnUse" color-interpolation-filters="sRGB">
<feFlood flood-opacity="0" result="BackgroundImageFix"/>
<feGaussianBlur in="BackgroundImageFix" stdDeviation="20.6903"/>
<feComposite in2="SourceAlpha" operator="in" result="effect1_backgroundBlur_2049_1723"/>
<feBlend mode="normal" in="SourceGraphic" in2="effect1_backgroundBlur_2049_1723" result="shape"/>
</filter>
<filter id="filter5_b_2049_1723" x="-505.857" y="-152.164" width="928.09" height="1507.78" filterUnits="userSpaceOnUse" color-interpolation-filters="sRGB">
<feFlood flood-opacity="0" result="BackgroundImageFix"/>
<feGaussianBlur in="BackgroundImageFix" stdDeviation="20.6903"/>
<feComposite in2="SourceAlpha" operator="in" result="effect1_backgroundBlur_2049_1723"/>
<feBlend mode="normal" in="SourceGraphic" in2="effect1_backgroundBlur_2049_1723" result="shape"/>
</filter>
<filter id="filter6_b_2049_1723" x="-504.139" y="-70.7635" width="831.871" height="1327.5" filterUnits="userSpaceOnUse" color-interpolation-filters="sRGB">
<feFlood flood-opacity="0" result="BackgroundImageFix"/>
<feGaussianBlur in="BackgroundImageFix" stdDeviation="20.6903"/>
<feComposite in2="SourceAlpha" operator="in" result="effect1_backgroundBlur_2049_1723"/>
<feBlend mode="normal" in="SourceGraphic" in2="effect1_backgroundBlur_2049_1723" result="shape"/>
</filter>
<filter id="filter7_b_2049_1723" x="-507.588" y="0.892742" width="752.355" height="1178.51" filterUnits="userSpaceOnUse" color-interpolation-filters="sRGB">
<feFlood flood-opacity="0" result="BackgroundImageFix"/>
<feGaussianBlur in="BackgroundImageFix" stdDeviation="20.6903"/>
<feComposite in2="SourceAlpha" operator="in" result="effect1_backgroundBlur_2049_1723"/>
<feBlend mode="normal" in="SourceGraphic" in2="effect1_backgroundBlur_2049_1723" result="shape"/>
</filter>
<filter id="filter8_b_2049_1723" x="-506.017" y="74.7062" width="665.101" height="1015.04" filterUnits="userSpaceOnUse" color-interpolation-filters="sRGB">
<feFlood flood-opacity="0" result="BackgroundImageFix"/>
<feGaussianBlur in="BackgroundImageFix" stdDeviation="20.6903"/>
<feComposite in2="SourceAlpha" operator="in" result="effect1_backgroundBlur_2049_1723"/>
<feBlend mode="normal" in="SourceGraphic" in2="effect1_backgroundBlur_2049_1723" result="shape"/>
</filter>
<filter id="filter9_b_2049_1723" x="-514.228" y="141.392" width="585.691" height="866.256" filterUnits="userSpaceOnUse" color-interpolation-filters="sRGB">
<feFlood flood-opacity="0" result="BackgroundImageFix"/>
<feGaussianBlur in="BackgroundImageFix" stdDeviation="20.6903"/>
<feComposite in2="SourceAlpha" operator="in" result="effect1_backgroundBlur_2049_1723"/>
<feBlend mode="normal" in="SourceGraphic" in2="effect1_backgroundBlur_2049_1723" result="shape"/>
</filter>
<filter id="filter10_f_2049_1723" x="1380" y="-39" width="91" height="1169" filterUnits="userSpaceOnUse" color-interpolation-filters="sRGB">
<feFlood flood-opacity="0" result="BackgroundImageFix"/>
<feBlend mode="normal" in="SourceGraphic" in2="BackgroundImageFix" result="shape"/>
<feGaussianBlur stdDeviation="12" result="effect1_foregroundBlur_2049_1723"/>
</filter>
<filter id="filter11_f_2049_1723" x="512" y="-40" width="91" height="1168" filterUnits="userSpaceOnUse" color-interpolation-filters="sRGB">
<feFlood flood-opacity="0" result="BackgroundImageFix"/>
<feBlend mode="normal" in="SourceGraphic" in2="BackgroundImageFix" result="shape"/>
<feGaussianBlur stdDeviation="12" result="effect1_foregroundBlur_2049_1723"/>
</filter>
<radialGradient id="paint0_radial_2049_1723" cx="0" cy="0" r="1" gradientUnits="userSpaceOnUse" gradientTransform="translate(490 0.000106079) rotate(91.9629) scale(1065.63 4434.27)">
<stop/>
<stop offset="0.533769" stop-color="#4016A0"/>
<stop offset="1" stop-color="#3F59E4"/>
</radialGradient>
<radialGradient id="paint1_radial_2049_1723" cx="0" cy="0" r="1" gradientUnits="userSpaceOnUse" gradientTransform="translate(1476.4 564.247) rotate(39.2726) scale(1102.77 610.051)">
<stop stop-color="#191919"/>
<stop offset="0.177083" stop-color="#4016A0"/>
<stop offset="0.34375" stop-color="#3F59E4"/>
<stop offset="0.5" stop-color="#4CB7A3"/>
<stop offset="0.682292" stop-color="#F6F1E7"/>
<stop offset="0.807292" stop-color="#4016A0"/>
</radialGradient>
<radialGradient id="paint2_radial_2049_1723" cx="0" cy="0" r="1" gradientUnits="userSpaceOnUse" gradientTransform="translate(1583.54 559.882) rotate(39.2726) scale(980.496 542.409)">
<stop stop-color="#191919"/>
<stop offset="0.177083" stop-color="#4016A0"/>
<stop offset="0.34375" stop-color="#3F59E4"/>
<stop offset="0.5" stop-color="#4CB7A3"/>
<stop offset="0.682292" stop-color="#F6F1E7"/>
<stop offset="0.807292" stop-color="#4016A0"/>
</radialGradient>
<radialGradient id="paint3_radial_2049_1723" cx="0" cy="0" r="1" gradientUnits="userSpaceOnUse" gradientTransform="translate(1676.96 560.658) rotate(39.2726) scale(879.443 486.507)">
<stop stop-color="#191919"/>
<stop offset="0.177083" stop-color="#4016A0"/>
<stop offset="0.34375" stop-color="#3F59E4"/>
<stop offset="0.5" stop-color="#4CB7A3"/>
<stop offset="0.682292" stop-color="#F6F1E7"/>
<stop offset="0.807292" stop-color="#4016A0"/>
</radialGradient>
<radialGradient id="paint4_radial_2049_1723" cx="0" cy="0" r="1" gradientUnits="userSpaceOnUse" gradientTransform="translate(1774.1 556.698) rotate(39.2726) scale(768.563 425.168)">
<stop stop-color="#191919"/>
<stop offset="0.177083" stop-color="#4016A0"/>
<stop offset="0.34375" stop-color="#3F59E4"/>
<stop offset="0.5" stop-color="#4CB7A3"/>
<stop offset="0.682292" stop-color="#F6F1E7"/>
<stop offset="0.807292" stop-color="#4016A0"/>
</radialGradient>
<radialGradient id="paint5_radial_2049_1723" cx="0" cy="0" r="1" gradientUnits="userSpaceOnUse" gradientTransform="translate(1872.16 552.601) rotate(39.2726) scale(667.648 369.342)">
<stop stop-color="#191919"/>
<stop offset="0.177083" stop-color="#4016A0"/>
<stop offset="0.34375" stop-color="#3F59E4"/>
<stop offset="0.5" stop-color="#4CB7A3"/>
<stop offset="0.682292" stop-color="#F6F1E7"/>
<stop offset="0.807292" stop-color="#4016A0"/>
</radialGradient>
<radialGradient id="paint6_radial_2049_1723" cx="0" cy="0" r="1" gradientUnits="userSpaceOnUse" gradientTransform="translate(497.389 -10.6875) rotate(92.3364) scale(1076.58 4479.87)">
<stop offset="0.0352604"/>
<stop offset="0.533769" stop-color="#4016A0"/>
<stop offset="1" stop-color="#3F59E4"/>
</radialGradient>
<radialGradient id="paint7_radial_2049_1723" cx="0" cy="0" r="1" gradientUnits="userSpaceOnUse" gradientTransform="translate(505.409 564.136) rotate(140.727) scale(1102.77 610.051)">
<stop stop-color="#191919"/>
<stop offset="0.177083" stop-color="#4016A0"/>
<stop offset="0.34375" stop-color="#3F59E4"/>
<stop offset="0.5" stop-color="#4CB7A3"/>
<stop offset="0.682292" stop-color="#F6F1E7"/>
<stop offset="0.807292" stop-color="#4016A0"/>
</radialGradient>
<radialGradient id="paint8_radial_2049_1723" cx="0" cy="0" r="1" gradientUnits="userSpaceOnUse" gradientTransform="translate(398.268 559.771) rotate(140.727) scale(980.496 542.409)">
<stop stop-color="#191919"/>
<stop offset="0.177083" stop-color="#4016A0"/>
<stop offset="0.34375" stop-color="#3F59E4"/>
<stop offset="0.5" stop-color="#4CB7A3"/>
<stop offset="0.682292" stop-color="#F6F1E7"/>
<stop offset="0.807292" stop-color="#4016A0"/>
</radialGradient>
<radialGradient id="paint9_radial_2049_1723" cx="0" cy="0" r="1" gradientUnits="userSpaceOnUse" gradientTransform="translate(304.853 560.546) rotate(140.727) scale(879.443 486.507)">
<stop stop-color="#191919"/>
<stop offset="0.177083" stop-color="#4016A0"/>
<stop offset="0.34375" stop-color="#3F59E4"/>
<stop offset="0.5" stop-color="#4CB7A3"/>
<stop offset="0.682292" stop-color="#F6F1E7"/>
<stop offset="0.807292" stop-color="#4016A0"/>
</radialGradient>
<radialGradient id="paint10_radial_2049_1723" cx="0" cy="0" r="1" gradientUnits="userSpaceOnUse" gradientTransform="translate(207.709 556.587) rotate(140.727) scale(768.563 425.168)">
<stop stop-color="#191919"/>
<stop offset="0.177083" stop-color="#4016A0"/>
<stop offset="0.34375" stop-color="#3F59E4"/>
<stop offset="0.5" stop-color="#4CB7A3"/>
<stop offset="0.682292" stop-color="#F6F1E7"/>
<stop offset="0.807292" stop-color="#4016A0"/>
</radialGradient>
<radialGradient id="paint11_radial_2049_1723" cx="0" cy="0" r="1" gradientUnits="userSpaceOnUse" gradientTransform="translate(109.656 552.489) rotate(140.727) scale(667.648 369.342)">
<stop stop-color="#191919"/>
<stop offset="0.177083" stop-color="#4016A0"/>
<stop offset="0.34375" stop-color="#3F59E4"/>
<stop offset="0.5" stop-color="#4CB7A3"/>
<stop offset="0.682292" stop-color="#F6F1E7"/>
<stop offset="0.807292" stop-color="#4016A0"/>
</radialGradient>
<clipPath id="clip0_2049_1723">
<rect width="1920" height="1080" fill="white"/>
</clipPath>
<clipPath id="clip1_2049_1723">
<rect width="1085.89" height="610.813" fill="white" transform="translate(1428 1086) rotate(-90)"/>
</clipPath>
<clipPath id="clip2_2049_1723">
<rect width="1085.89" height="610.813" fill="white" transform="matrix(4.37114e-08 -1 -1 -4.37114e-08 553.812 1085.89)"/>
</clipPath>
</defs>
</svg>
