<?xml version="1.0" encoding="utf-8"?>
<!-- Generator: Adobe Illustrator 27.0.1, SVG Export Plug-In . SVG Version: 6.00 Build 0)  -->
<svg version="1.1" id="svg815" xmlns="http://www.w3.org/2000/svg" xmlns:xlink="http://www.w3.org/1999/xlink" x="0px" y="0px"
	 viewBox="0 0 263.8 105" style="enable-background:new 0 0 263.8 105;" xml:space="preserve">
<style type="text/css">
	.st0{fill:#FFFFFF;}
</style>
<path class="st0" d="M63.5,2.3H39.3l7.5,23.3H71L51.4,39.5L58.9,63C71.5,53.8,75.7,39.9,71,25.6L63.5,2.3z M7.7,25.6h24.2l7.5-23.3
	H15.2L7.7,25.6c-4.6,14.3-0.5,28.1,12,37.3l7.5-23.5L7.7,25.6z M19.8,63l19.6,13.8L58.9,63L39.3,48.9L19.8,63z M202.3,25.1
	c-5.8,0-9.4,2.6-11.1,6.8h-0.4V12.7h-8.6v50.1h8.8V41.1c0-5.4,3.3-8.5,8.1-8.5s7.3,3,7.3,8v22.3h8.8V39.1
	C215.1,30.1,210,25.1,202.3,25.1L202.3,25.1L202.3,25.1z M238.8,12.6c-11.9,0-19,9.3-19,25.4s7.1,25.7,19,25.7s19-9.4,19-25.7
	S250.7,12.6,238.8,12.6L238.8,12.6z M228.8,38.1c0.1-11.8,3.9-18,10-18c4.2,0,7.3,2.9,8.9,8.4L229,42.1
	C228.9,40.9,228.8,39.5,228.8,38.1L228.8,38.1L228.8,38.1z M238.8,56.2c-4.3,0-7.5-3.1-9-9l18.8-13.7c0.2,1.5,0.2,3.1,0.2,4.6
	C248.8,50,245,56.2,238.8,56.2L238.8,56.2L238.8,56.2z M142.7,47.2c0,5.7-4,8.4-7.9,8.4s-7-3-7-7.7V25.6H119v23.7
	c0,9,5.1,14,12.4,14c5.5,0,9.5-3,11.2-7.1h0.4v6.6h8.5V25.6h-8.8V47.2L142.7,47.2z M99.1,25.1c-7.9,0-13.8,3.5-15.8,10.3l8.2,1.2
	c0.9-2.6,3.3-4.7,7.6-4.7s6.3,2,6.3,5.8v0.1c0,2.5-2.6,2.6-9.2,3.3c-6.6,0.7-14.2,3-14.2,11.3c0,7.3,5.4,11.2,12.5,11.2
	c5.8,0,9.3-2.7,10.9-5.9h0.3v5.1h8.4V37.9C114.2,28,106.2,25.1,99.1,25.1C99.1,25.1,99.1,25.1,99.1,25.1z M105.5,49.4
	c0,4.1-3.4,7.6-8.7,7.6c-3.7,0-6.3-1.7-6.3-4.9s3-4.8,6.9-5.3c2.3-0.3,6.9-0.9,8.1-1.8L105.5,49.4L105.5,49.4L105.5,49.4z
	 M170.2,16.3h-8.8v9.4h-5.3v6.9h5.3v20.7c-0.1,7,5,10.4,11.6,10.2c1.5,0,3-0.2,4.5-0.6v-6.9c-0.6,0.1-2.2,0.3-3.3,0.3
	c-2.2,0-4-0.8-4-4.3V32.6h7.3v-6.9h-7.3V16.3L170.2,16.3z"/>
<g>
	<path class="st0" d="M196.5,93c0,3.3-2.2,5.5-5.2,5.5c-1.8,0-3.1-0.7-3.7-1.8l-0.2,1.7h-1.5V83.6h1.7v5.8c0.7-1,1.9-1.9,3.7-1.9
		C194.3,87.5,196.5,89.5,196.5,93L196.5,93z M194.7,93c0-2.4-1.4-4-3.6-4s-3.6,1.6-3.6,3.9s1.4,4,3.6,4S194.7,95.4,194.7,93
		L194.7,93z"/>
	<path class="st0" d="M196.9,87.6h1.9l3.3,8.7l3.2-8.7h1.9l-5,12.7c-0.7,1.7-1.1,2.4-2.6,2.4h-2.1v-1.6h1.6c1,0,1.2-0.2,1.6-1.3
		l0.5-1.3L196.9,87.6L196.9,87.6z"/>
	<path class="st0" d="M220.8,98.5c-4.2,0-7.1-3.2-7.1-7.6s2.9-7.6,7.1-7.6s7.1,3.2,7.1,7.6S225,98.5,220.8,98.5z M220.8,96.8
		c3.1,0,5.2-2.4,5.2-5.9s-2.1-5.9-5.2-5.9s-5.2,2.4-5.2,5.9S217.7,96.8,220.8,96.8z"/>
	<path class="st0" d="M230,83.5h1.7v9.8l5.4-5.8h2.1l-4.2,4.5l4.5,6.3h-2.1l-3.6-5.1l-2.2,2.2v2.8H230L230,83.5L230,83.5z"/>
	<path class="st0" d="M241.6,89.2h-1.9v-1.6h1.9v-3h1.7v3h2.8v1.6h-2.8v6.4c0,0.9,0.3,1.2,1.2,1.2h1.7v1.6h-1.9
		c-2.1,0-2.8-0.9-2.8-2.8V89.2L241.6,89.2z"/>
	<path class="st0" d="M257.7,96.8v1.6h-1c-1.4,0-1.9-0.6-1.9-1.7c-0.7,1-1.8,1.8-3.6,1.8c-2.4,0-4-1.2-4-3.2c0-2.2,1.5-3.4,4.4-3.4
		h3.2v-0.7c0-1.4-1-2.2-2.7-2.2c-1.5,0-2.6,0.7-2.8,1.8h-1.7c0.2-2.1,2-3.4,4.6-3.4c2.8,0,4.3,1.4,4.3,3.9v4.7
		c0,0.6,0.2,0.7,0.7,0.7L257.7,96.8L257.7,96.8z M254.7,93.5h-3.4c-1.6,0-2.4,0.6-2.4,1.8c0,1.1,0.9,1.8,2.4,1.8
		c2.2,0,3.4-1.2,3.4-3.1V93.5z"/>
</g>
</svg>
