<?xml version="1.0" encoding="UTF-8"?><svg id="svg815" xmlns="http://www.w3.org/2000/svg" viewBox="0 0 263.76 105"><defs><style>.cls-1{fill:#0d0223;}</style></defs><path class="cls-1" d="M63.55,2.34h-24.21l7.48,23.29h24.21l-19.58,13.88,7.48,23.45c12.59-9.2,16.73-23.08,12.1-37.32L63.55,2.34ZM7.72,25.63H31.87L39.35,2.34H15.2L7.72,25.63c-4.62,14.26-.54,28.13,12.04,37.32l7.48-23.45L7.72,25.63Zm12.04,37.33l19.58,13.82,19.57-13.82-19.57-14.09-19.58,14.09ZM202.32,25.09c-5.75,0-9.42,2.58-11.13,6.78h-.43V12.72h-8.55V62.85h8.77v-21.79c0-5.38,3.33-8.5,8.07-8.5s7.31,2.96,7.31,7.96v22.32h8.77v-23.77c0-8.98-5.11-13.99-12.8-13.99h-.01Zm36.52-12.47c-11.89,0-19.04,9.31-19.04,25.44s7.1,25.66,19.04,25.66,19.04-9.42,19.04-25.66-7.15-25.44-19.04-25.44Zm-10,25.44c.05-11.78,3.87-17.97,10-17.97,4.2,0,7.31,2.85,8.88,8.44l-18.72,13.55c-.11-1.22-.16-2.56-.16-4.04h0Zm10,18.09c-4.31,0-7.53-3.07-9.04-8.98l18.82-13.71c.16,1.54,.23,3.09,.22,4.62,0,11.89-3.82,18.08-10,18.08h0Zm-96.17-8.94c0,5.65-4.04,8.44-7.91,8.44s-7.04-2.96-7.04-7.69V25.58h-8.77v23.72c0,8.98,5.11,14.04,12.42,14.04,5.54,0,9.47-2.96,11.19-7.1h.38v6.62h8.5V25.58h-8.77v21.62Zm-43.56-22.16c-7.86,0-13.82,3.49-15.76,10.27l8.18,1.18c.86-2.58,3.33-4.73,7.64-4.73s6.29,2.04,6.29,5.75v.11c0,2.53-2.64,2.64-9.2,3.33-6.56,.69-14.15,2.96-14.15,11.35,0,7.31,5.38,11.19,12.48,11.19,5.8,0,9.31-2.74,10.92-5.86h.27v5.11h8.44v-24.9c0-9.84-8.02-12.8-15.11-12.8h0Zm6.4,24.37c0,4.14-3.39,7.64-8.66,7.64-3.66,0-6.29-1.67-6.29-4.89s2.96-4.79,6.89-5.33c2.31-.33,6.89-.91,8.07-1.83v4.42h0ZM170.22,16.27h-8.77v9.36h-5.33v6.94h5.33v20.66c-.05,6.99,5,10.44,11.62,10.22,1.51,0,3.02-.23,4.46-.64v-6.93c-.64,.11-2.2,.27-3.33,.33-2.2,.05-3.98-.8-3.98-4.31v-19.31h7.31v-6.93h-7.31v-9.37Z"/><g><path d="M196.46,93c0,3.31-2.21,5.54-5.2,5.54-1.83,0-3.06-.74-3.72-1.78l-.23,1.66h-1.51v-14.87h1.74v5.78c.72-1,1.89-1.87,3.72-1.87,2.99,0,5.2,2.02,5.2,5.54Zm-1.78,0c0-2.36-1.44-3.99-3.59-3.99s-3.57,1.64-3.57,3.95,1.44,4.04,3.57,4.04,3.59-1.64,3.59-3.99Z"/><path d="M196.9,87.58h1.85l3.33,8.65,3.23-8.65h1.85l-4.99,12.66c-.68,1.74-1.08,2.42-2.61,2.42h-2.08v-1.59h1.55c1,0,1.17-.25,1.57-1.27l.53-1.32-4.23-10.9Z"/><path d="M220.81,98.54c-4.18,0-7.09-3.19-7.09-7.56s2.91-7.56,7.09-7.56,7.09,3.19,7.09,7.56-2.91,7.56-7.09,7.56Zm0-1.7c3.1,0,5.21-2.44,5.21-5.86s-2.1-5.86-5.21-5.86-5.2,2.44-5.2,5.86,2.1,5.86,5.2,5.86Z"/><path d="M229.99,83.54h1.74v9.79l5.44-5.76h2.14l-4.23,4.48,4.52,6.35h-2.1l-3.59-5.1-2.19,2.25v2.85h-1.74v-14.87Z"/><path d="M241.56,89.17h-1.95v-1.59h1.95v-3.04h1.74v3.04h2.8v1.59h-2.8v6.39c0,.91,.32,1.25,1.25,1.25h1.72v1.59h-1.89c-2.08,0-2.82-.91-2.82-2.83v-6.41Z"/><path d="M257.74,96.82v1.59h-.96c-1.44,0-1.93-.62-1.95-1.68-.68,.98-1.76,1.81-3.63,1.81-2.38,0-3.99-1.19-3.99-3.16,0-2.17,1.51-3.38,4.35-3.38h3.19v-.74c0-1.4-1-2.25-2.7-2.25-1.53,0-2.55,.72-2.76,1.83h-1.74c.25-2.12,1.97-3.38,4.59-3.38,2.76,0,4.35,1.38,4.35,3.91v4.74c0,.57,.21,.72,.7,.72h.55Zm-3-3.36h-3.36c-1.55,0-2.42,.57-2.42,1.81,0,1.06,.91,1.78,2.36,1.78,2.17,0,3.42-1.25,3.42-3.06v-.53Z"/></g></svg>