<svg width="94" height="114" viewBox="0 0 94 114" fill="none" xmlns="http://www.w3.org/2000/svg">
<path d="M6.00158 49.3393C24.6371 46.2696 39.2432 30.8608 42.3129 12.2249L43.3368 3.26754C43.5894 1.84465 42.63 -0.133835 40.8229 0.0071337C26.7368 1.10669 13.456 5.74703 6.05729 8.77607C2.39195 10.2766 0 13.8402 0 17.801V47.0192C0 48.7524 1.55466 50.0719 3.26482 49.7902L6.00158 49.3393Z" fill="black"/>
<path d="M51.2994 12.2248C54.3691 30.8607 68.9752 46.2695 87.6107 49.3393L90.3477 49.7901C92.0579 50.0718 93.6126 48.7523 93.6126 47.0191V17.8009C93.6126 13.8401 91.2206 10.2765 87.5553 8.776C80.1565 5.74718 66.8757 1.10661 52.7896 0.0070559C50.9826 -0.133913 50.0531 1.86807 50.269 3.26747L51.2994 12.2248Z" fill="black"/>
<path d="M87.6002 57.5195C62.1343 62.5403 50.3046 79.4724 50.3086 111.519C50.3088 113.123 51.9091 114.239 53.2429 113.347C64.9527 105.452 90.7326 84.8299 93.3861 59.0342C93.4861 55.7861 89.4289 57.3132 87.6002 57.5195Z" fill="black"/>
<path d="M6.01035 57.5205C31.4762 62.5412 43.306 79.4734 43.3019 111.52C43.3017 113.124 41.7014 114.24 40.3676 113.348C28.6578 105.453 2.87799 84.8309 0.224472 59.0351C0.124454 55.787 4.18137 57.3142 6.01035 57.5205Z" fill="black"/>
</svg>
