<svg width="1008" height="320" viewBox="0 0 1008 320" fill="none" xmlns="http://www.w3.org/2000/svg">
<path d="M506.619 122.358C500.698 112.999 489.62 106.314 473.193 106.314C446.262 106.314 426.397 126.369 426.397 156.167C426.397 187.874 446.262 206.019 473.193 206.019C489.62 206.019 500.125 198.188 506.619 189.211L508.72 204.873H522.282V76.6406H506.619V122.358ZM474.721 192.076C455.43 192.076 442.441 177.368 442.441 156.167C442.441 134.965 455.43 120.257 474.721 120.257C493.822 120.257 506.81 135.156 506.81 156.549C506.81 177.368 493.822 192.076 474.721 192.076Z" fill="white"/>
<path d="M625.941 190.548C621.548 190.548 619.638 189.211 619.638 184.054V141.459C619.638 118.729 605.312 106.314 580.482 106.314C556.988 106.314 541.517 117.583 539.224 136.684H554.887C556.797 126.751 565.965 120.257 579.718 120.257C594.998 120.257 603.975 127.898 603.975 140.504V147.189H575.325C549.73 147.189 536.168 158.077 536.168 177.559C536.168 195.323 550.685 206.019 572.077 206.019C588.886 206.019 598.627 198.57 604.739 189.784C604.93 199.334 609.324 204.873 622.312 204.873H630.907V190.548H625.941ZM603.975 165.144C603.975 181.379 592.706 192.649 573.223 192.649C560.235 192.649 552.022 186.155 552.022 176.604C552.022 165.526 559.853 160.369 573.796 160.369H603.975V165.144Z" fill="white"/>
<path d="M663.853 205.446L659.077 217.289C655.448 226.457 653.92 228.749 644.943 228.749H631V243.075H649.718C663.471 243.075 667.1 236.962 673.212 221.3L718.098 107.46H701.481L672.448 185.2L642.46 107.46H625.842L663.853 205.446Z" fill="white"/>
<path d="M735.518 204.93H822.934V190.965H756.556L794.641 158.683C809.694 145.806 822.027 133.836 822.027 114.793C822.027 91.9417 806.067 76.8887 778.682 76.8887C753.11 76.8887 736.244 93.9366 736.244 117.876V121.141H751.478V118.783C751.478 101.372 762.359 90.4908 778.682 90.4908C795.548 90.4908 806.43 99.5588 806.43 115.519C806.43 129.302 796.636 139.096 784.848 149.252L735.518 192.053V204.93Z" fill="white"/>
<path d="M897.319 138.914C909.471 135.65 917.813 126.4 917.813 110.441C917.813 90.4908 901.309 76.8887 875.194 76.8887C850.166 76.8887 832.755 92.3044 832.574 114.612H847.627C847.808 100.103 859.415 90.4908 875.375 90.4908C890.609 90.4908 902.216 98.4707 902.216 111.347C902.216 124.224 892.785 133.655 873.924 133.655H863.949V146.894H874.831C894.599 146.894 905.481 155.418 905.481 168.658C905.481 183.166 892.785 192.416 876.282 192.416C858.327 192.416 845.269 182.441 845.088 165.756H830.035C830.035 190.965 847.808 206.018 875.375 206.018C902.942 206.018 921.078 191.328 921.078 169.746C921.078 150.34 908.927 141.091 897.319 138.914Z" fill="white"/>
<path d="M149.878 88.5121V79.9267C149.878 79.033 149.531 78.1747 148.906 77.5357C148.281 76.8966 147.429 76.5277 146.536 76.5078H89.8696C88.963 76.5078 88.0924 76.868 87.4513 77.5092C86.8103 78.1504 86.4536 79.02 86.4536 79.9267V201.717C86.4735 202.611 86.8421 203.461 87.481 204.086C88.1199 204.711 88.9761 205.06 89.8696 205.06H162.945C163.838 205.06 164.694 204.711 165.333 204.086C165.972 203.461 166.345 202.611 166.364 201.717V192.828C166.364 191.934 166.712 191.076 167.336 190.437C167.961 189.798 168.813 189.429 169.706 189.409H179.428C180.314 189.409 181.163 189.057 181.79 188.43C182.417 187.803 182.769 186.953 182.769 186.066V94.8941C182.77 94.0004 182.422 93.1421 181.798 92.5031C181.173 91.864 180.321 91.4951 179.428 91.4752H153.146C152.339 91.4465 151.57 91.1332 150.972 90.5909C150.374 90.0486 149.985 89.3122 149.878 88.5121ZM119.494 186.37V95.1981C119.513 94.3046 119.882 93.4544 120.521 92.8295C121.16 92.2047 122.02 91.8549 122.913 91.8551H146.688C147.575 91.8551 148.424 92.2073 149.051 92.8343C149.678 93.4612 150.03 94.3115 150.03 95.1981V186.37C150.03 187.257 149.678 188.107 149.051 188.734C148.424 189.361 147.575 189.713 146.688 189.713H122.922C122.453 189.714 121.991 189.619 121.56 189.433C121.13 189.247 120.742 188.974 120.422 188.632C120.101 188.29 119.853 187.886 119.695 187.445C119.566 187.083 119.494 186.754 119.494 186.37Z" fill="white"/>
<path d="M297.864 152.56V127.716C297.864 126.829 297.512 125.979 296.885 125.352C296.258 124.725 295.409 124.373 294.523 124.373H284.419C283.533 124.373 282.683 124.02 282.057 123.394C281.43 122.767 281.077 121.916 281.077 121.03V110.925C281.078 110.031 280.727 109.173 280.102 108.534C279.477 107.895 278.629 107.526 277.735 107.506H220.461C219.554 107.506 218.684 107.866 218.043 108.507C217.401 109.148 217.041 110.018 217.041 110.925V121.41C217.041 122.296 216.689 123.146 216.062 123.773C215.435 124.4 214.586 124.753 213.699 124.753H203.37C202.483 124.753 201.634 125.105 201.007 125.732C200.38 126.359 200.028 127.209 200.028 128.095V184.47C200.028 185.357 200.38 186.207 201.007 186.834C201.634 187.461 202.483 187.813 203.37 187.813H213.699C214.593 187.833 215.445 188.202 216.069 188.841C216.694 189.48 217.041 190.338 217.041 191.232V201.717C217.061 202.61 217.43 203.461 218.069 204.085C218.707 204.71 219.567 205.06 220.461 205.06H277.735C278.622 205.06 279.471 204.708 280.098 204.081C280.725 203.454 281.077 202.603 281.077 201.717V190.624C281.077 190.04 281.31 189.479 281.723 189.066C282.136 188.653 282.696 188.421 283.28 188.421H294.37C295.264 188.401 296.112 188.032 296.737 187.393C297.362 186.754 297.712 185.896 297.712 185.002V174.517C297.712 173.631 297.36 172.78 296.733 172.153C296.106 171.526 295.257 171.174 294.37 171.174H283.889C282.995 171.174 282.135 171.524 281.496 172.149C280.858 172.773 280.489 173.624 280.469 174.517V185.61C280.469 186.194 280.237 186.755 279.824 187.168C279.411 187.581 278.85 187.813 278.266 187.813H237.474C236.581 187.813 235.724 187.464 235.085 186.839C234.447 186.214 234.078 185.364 234.058 184.47V159.626C234.078 158.732 234.447 157.882 235.085 157.257C235.724 156.632 236.581 156.283 237.474 156.283H294.749C295.202 156.255 295.645 156.135 296.051 155.93C296.456 155.725 296.816 155.44 297.108 155.091C297.399 154.743 297.616 154.339 297.746 153.904C297.876 153.468 297.917 153.011 297.864 152.56ZM233.828 135.313V127.716C233.848 126.822 234.217 125.972 234.856 125.347C235.494 124.722 236.354 124.372 237.248 124.373H260.414C261.308 124.372 262.168 124.722 262.807 125.347C263.446 125.972 263.814 126.822 263.834 127.716V135.313C263.814 136.207 263.446 137.057 262.807 137.682C262.168 138.307 261.308 138.656 260.414 138.656H237.248C236.354 138.656 235.494 138.307 234.856 137.682C234.217 137.057 233.848 136.207 233.828 135.313Z" fill="white"/>
<path d="M406.142 107.507H396.951C396.044 107.507 395.177 107.867 394.536 108.508C393.895 109.149 393.535 110.019 393.535 110.926V135.694C393.535 136.581 393.183 137.431 392.556 138.058C391.929 138.685 391.08 139.037 390.193 139.037H382.141C381.247 139.037 380.387 139.387 379.749 140.012C379.11 140.636 378.741 141.487 378.721 142.38V166.541C378.721 167.427 378.369 168.278 377.742 168.905C377.115 169.532 376.266 169.884 375.379 169.884H349.249C348.363 169.884 347.513 169.532 346.887 168.905C346.26 168.278 345.907 167.427 345.907 166.541V142.38C345.907 141.494 345.555 140.643 344.928 140.016C344.301 139.389 343.452 139.037 342.566 139.037H334.435C333.549 139.037 332.7 138.685 332.073 138.058C331.446 137.431 331.094 136.581 331.094 135.694V110.925C331.094 110.031 330.747 109.173 330.122 108.534C329.497 107.895 328.645 107.526 327.752 107.506H318.487C317.593 107.526 316.741 107.895 316.117 108.534C315.492 109.173 315.141 110.031 315.141 110.925V170.188C315.141 171.074 315.493 171.924 316.12 172.551C316.747 173.178 317.6 173.531 318.487 173.531H326.535C327.429 173.53 328.289 173.88 328.928 174.505C329.566 175.13 329.935 175.98 329.955 176.874V184.471C329.955 185.358 330.307 186.208 330.934 186.835C331.561 187.462 332.41 187.814 333.297 187.814H341.423C342.317 187.834 343.169 188.203 343.793 188.842C344.418 189.481 344.769 190.339 344.769 191.233V201.718C344.769 202.604 345.121 203.455 345.748 204.082C346.375 204.709 347.224 205.061 348.111 205.061H376.518C377.404 205.061 378.254 204.709 378.881 204.082C379.507 203.455 379.86 202.604 379.86 201.718V191.233C379.86 190.326 380.22 189.457 380.861 188.816C381.502 188.174 382.373 187.814 383.28 187.814H391.332C392.225 187.814 393.081 187.465 393.72 186.84C394.359 186.215 394.728 185.365 394.748 184.471V176.874C394.748 175.987 395.1 175.137 395.727 174.51C396.354 173.883 397.207 173.531 398.093 173.531H406.142C407.035 173.531 407.895 173.181 408.534 172.556C409.173 171.931 409.542 171.081 409.562 170.188V111.306C409.615 110.826 409.568 110.34 409.421 109.88C409.273 109.421 409.028 108.997 408.705 108.639C408.382 108.28 407.985 107.993 407.544 107.798C407.102 107.603 406.625 107.504 406.142 107.507Z" fill="white"/>
</svg>
