<svg width="33" height="33" viewBox="0 0 33 33" fill="none" xmlns="http://www.w3.org/2000/svg">
<rect x="0.913086" y="0.56543" width="32" height="32" rx="3.53391" fill="url(#paint0_linear_306_3215)"/>
<path d="M20.9807 5.27642V3.42227C20.9807 3.22925 20.9057 3.04389 20.7708 2.90588C20.6359 2.76787 20.4519 2.68819 20.2589 2.6839H8.02094C7.82516 2.6839 7.63712 2.7617 7.49868 2.90017C7.36023 3.03864 7.2832 3.22644 7.2832 3.42227V29.7249C7.28749 29.9178 7.3671 30.1014 7.50509 30.2364C7.64307 30.3713 7.82796 30.4469 8.02094 30.4468H23.8027C23.9956 30.4469 24.1805 30.3713 24.3185 30.2364C24.4565 30.1014 24.5369 29.9178 24.5412 29.7249V27.8051C24.5412 27.6121 24.6162 27.4267 24.7511 27.2887C24.886 27.1507 25.07 27.071 25.2629 27.0667H27.3624C27.5538 27.0667 27.7373 26.9906 27.8727 26.8552C28.008 26.7198 28.0841 26.5362 28.0841 26.3447V6.65472C28.0842 6.4617 28.0092 6.27634 27.8743 6.13833C27.7393 6.00032 27.5553 5.92064 27.3624 5.91635H21.6864C21.5122 5.91014 21.3461 5.84248 21.217 5.72536C21.0879 5.60824 21.0038 5.44921 20.9807 5.27642ZM14.4187 26.4104V6.72036C14.423 6.52739 14.5026 6.34377 14.6406 6.20883C14.7786 6.07389 14.9643 5.99834 15.1572 5.99839H20.2918C20.4832 5.99839 20.6667 6.07446 20.802 6.20986C20.9374 6.34525 21.0135 6.52889 21.0135 6.72036V26.4104C21.0135 26.6019 20.9374 26.7855 20.802 26.9209C20.6667 27.0563 20.4832 27.1324 20.2918 27.1324H15.1591C15.0578 27.1326 14.958 27.112 14.8651 27.0718C14.7722 27.0317 14.6884 26.9728 14.6192 26.899C14.5499 26.8251 14.4962 26.7378 14.4622 26.6425C14.4343 26.5643 14.4187 26.4934 14.4187 26.4104Z" fill="white"/>
<defs>
<linearGradient id="paint0_linear_306_3215" x1="-7.31884" y1="-8.58341" x2="9.01626" y2="40.5158" gradientUnits="userSpaceOnUse">
<stop offset="0.00117807" stop-color="#FF44DD"/>
<stop offset="1" stop-color="#3F59E4"/>
</linearGradient>
</defs>
</svg>
