<svg width="120" height="120" viewBox="0 0 120 120" fill="none" xmlns="http://www.w3.org/2000/svg">
<path fill-rule="evenodd" clip-rule="evenodd" d="M53.9896 0.852137L56.4502 31.2467C57.6149 31.1055 58.7948 31.0299 59.9999 31.0299C61.4975 31.0299 62.9698 31.1408 64.4069 31.3627L65.8086 16.6242C65.854 16.1654 65.4859 15.762 65.022 15.767H62.5059L63.7211 0.852137C63.7614 0.393294 63.3984 0 62.9396 0H54.7812C54.3223 0 53.9644 0.393294 53.9997 0.852137H53.9896ZM74.5821 2.35976C74.7031 1.91605 75.1771 1.67402 75.6107 1.83033L83.28 4.62372C83.7136 4.78003 83.9153 5.27417 83.7237 5.69268L77.4865 19.2916L79.8563 20.1487C80.29 20.3051 80.5017 20.8042 80.3 21.2278L73.9468 34.5998C71.6425 33.3291 69.1466 32.3761 66.5095 31.7711L74.5821 2.35976ZM93.4099 10.8257L75.762 35.6889C78.0008 37.1461 80.0227 38.9008 81.7774 40.9026L92.3309 30.5055C92.6636 30.1777 92.6384 29.6382 92.2855 29.3407L90.3543 27.7272L100.862 17.0831C101.185 16.7553 101.16 16.2259 100.807 15.9284L94.5595 10.6794C94.2066 10.3819 93.6771 10.4525 93.4099 10.8257ZM108.214 25.2212C108.592 24.9641 109.111 25.08 109.343 25.4733L113.423 32.5425C113.655 32.9409 113.493 33.4501 113.08 33.6468L99.5614 40.0555L100.827 42.2337C101.059 42.6371 100.898 43.1514 100.474 43.343L87.0062 49.4996C86.028 46.9936 84.7271 44.659 83.1338 42.5514L108.214 25.2212ZM118.172 44.4321C118.092 43.9783 117.648 43.6909 117.199 43.8069L87.7021 51.5114C88.4634 54.0023 88.892 56.6394 88.9525 59.3672L103.721 58.1823C104.185 58.147 104.513 57.7184 104.432 57.2595L103.989 54.7838L118.878 53.3871C119.337 53.3417 119.66 52.9182 119.579 52.4644L118.167 44.4271L118.172 44.4321ZM119.287 64.354C119.746 64.3993 120.068 64.8229 119.988 65.2767L118.571 73.314C118.49 73.7678 118.041 74.0552 117.598 73.9392L103.126 70.1576L102.693 72.6333C102.612 73.0921 102.153 73.3796 101.709 73.2535L87.4348 69.3105C88.2769 66.8347 88.7962 64.2178 88.9324 61.495L119.287 64.354ZM114.567 85.4759C114.799 85.0775 114.638 84.5683 114.224 84.3716L86.6835 71.3122C85.6347 73.7829 84.2481 76.0772 82.5892 78.1344L94.6604 86.7213C95.0385 86.9936 95.568 86.8726 95.7949 86.4742L97.0504 84.2909L109.354 92.7972C109.732 93.0594 110.251 92.9434 110.483 92.5451L114.567 85.4759ZM81.1976 79.7479L102.622 101.45C102.945 101.777 102.92 102.307 102.567 102.604L96.3142 107.848C95.9613 108.146 95.4318 108.075 95.1646 107.702L86.5121 95.4998L84.586 97.1234C84.233 97.4209 83.6935 97.3503 83.4313 96.9671L75.0309 84.78C77.31 83.3884 79.3823 81.6891 81.1976 79.7479ZM85.428 114.59C85.8616 114.433 86.0633 113.939 85.8717 113.521L73.1653 85.7986C70.8256 86.9936 68.3045 87.886 65.6523 88.4104L69.3785 102.74C69.4945 103.189 69.9735 103.441 70.4071 103.28L72.772 102.413L76.7352 116.839C76.8562 117.282 77.3302 117.524 77.7638 117.368L85.4331 114.58L85.428 114.59ZM63.5446 88.7483L66.0053 119.148C66.0405 119.607 65.6825 120 65.2237 120H57.0653C56.6065 120 56.2434 119.607 56.2838 119.148L57.499 104.238H54.9829C54.519 104.243 54.156 103.845 54.1963 103.381L55.598 88.6424C57.0351 88.8592 58.5074 88.9752 60.005 88.9752C61.205 88.9752 62.3849 88.8945 63.5497 88.7533L63.5446 88.7483ZM34.1231 6.47422C33.9315 6.05572 34.1382 5.56662 34.5668 5.40527L42.2361 2.61692C42.6647 2.46061 43.1437 2.70263 43.2647 3.14635L47.2279 17.5722L49.5927 16.7049C50.0264 16.5436 50.5054 16.7957 50.6213 17.2444L54.3476 31.5744C51.6953 32.0988 49.1742 32.9913 46.8346 34.1863L34.1231 6.46918V6.47422ZM17.3778 18.5554L38.8023 40.2571C40.6125 38.3108 42.6848 36.6116 44.969 35.22L36.5686 23.0329C36.3064 22.6547 35.7669 22.5791 35.4139 22.8816L33.4878 24.5052L24.8353 12.303C24.568 11.9299 24.0386 11.8593 23.6856 12.1568L17.4332 17.4007C17.0803 17.6982 17.0551 18.2327 17.3778 18.5554ZM5.77554 35.6334C5.35703 35.4368 5.20072 34.9275 5.43267 34.5292L9.51689 27.46C9.74883 27.0616 10.2682 26.9457 10.6464 27.2079L22.9495 35.7141L24.205 33.5308C24.4369 33.1274 24.9664 33.0115 25.3395 33.2838L37.4106 41.8707C35.7517 43.9329 34.3651 46.2221 33.3163 48.6928L5.77554 35.6334ZM1.42911 46.6961L0.0122451 54.7334C-0.068431 55.1922 0.259306 55.6158 0.713109 55.6561L31.0675 58.505C31.2036 55.7822 31.723 53.1653 32.565 50.6895L18.2904 46.7515C17.8467 46.6255 17.3879 46.9179 17.3072 47.3717L16.8786 49.8475L2.40731 46.0658C1.96359 45.9498 1.51483 46.2372 1.43416 46.691L1.42911 46.6961ZM2.80061 76.1982C2.35689 76.3141 1.90813 76.0267 1.82746 75.5729L0.415618 67.5356C0.334942 67.0818 0.662693 66.6583 1.1165 66.6129L16.0063 65.2162L15.5625 62.7405C15.4819 62.2816 15.8096 61.8581 16.2735 61.8177L31.0423 60.6328C31.1028 63.3657 31.5314 65.9977 32.2927 68.4936L2.79557 76.1931L2.80061 76.1982ZM10.6564 94.5367C10.8884 94.93 11.4077 95.046 11.7859 94.7889L36.8762 77.4587C35.2828 75.3511 33.9769 73.0165 33.0037 70.5105L19.5358 76.6721C19.1123 76.8637 18.9459 77.3831 19.1829 77.7814L20.4485 79.9597L6.93021 86.3683C6.51675 86.565 6.3554 87.0742 6.58734 87.4726L10.6665 94.5418L10.6564 94.5367ZM44.2378 84.3161L26.59 109.184C26.3227 109.558 25.7983 109.628 25.4403 109.331L19.193 104.082C18.84 103.784 18.8148 103.25 19.1375 102.927L29.6456 92.2829L27.7144 90.6694C27.3614 90.3719 27.3362 89.8323 27.669 89.5096L38.2224 79.1126C39.9771 81.1093 41.9991 82.864 44.2378 84.3212V84.3161ZM44.3891 118.175C44.8177 118.331 45.2967 118.089 45.4177 117.645L53.4954 88.239C50.8583 87.6339 48.3624 86.6759 46.0581 85.4103L39.7049 98.7823C39.5032 99.2008 39.7099 99.705 40.1486 99.8613L42.5184 100.719L36.2812 114.317C36.0896 114.736 36.2963 115.225 36.7249 115.386L44.3942 118.18L44.3891 118.175Z" fill="black"/>
</svg>
